<?xml version="1.0" encoding="UTF-8" standalone="no"?>
<!-- Generator: Adobe Illustrator 13.0.2, SVG Export Plug-In . SVG Version: 6.00 Build 14948)  -->

<svg
   xmlns:dc="http://purl.org/dc/elements/1.1/"
   xmlns:cc="http://creativecommons.org/ns#"
   xmlns:rdf="http://www.w3.org/1999/02/22-rdf-syntax-ns#"
   xmlns:svg="http://www.w3.org/2000/svg"
   xmlns="http://www.w3.org/2000/svg"
   xmlns:sodipodi="http://sodipodi.sourceforge.net/DTD/sodipodi-0.dtd"
   xmlns:inkscape="http://www.inkscape.org/namespaces/inkscape"
   version="1.0"
   id="Ebene_1"
   x="0px"
   y="0px"
   width="524.77399"
   height="218.59399"
   viewBox="0 0 524.77397 218.59399"
   enable-background="new 0 0 527.244 297.479"
   xml:space="preserve"
   sodipodi:docname="VOA.svg"
   inkscape:version="0.92.4 (5da689c313, 2019-01-14)"><metadata
     id="metadata4540"><rdf:RDF><cc:Work
         rdf:about=""><dc:format>image/svg+xml</dc:format><dc:type
           rdf:resource="http://purl.org/dc/dcmitype/StillImage" /><dc:title></dc:title></cc:Work></rdf:RDF></metadata><defs
     id="defs4538" /><sodipodi:namedview
     pagecolor="#ffffff"
     bordercolor="#666666"
     borderopacity="1"
     objecttolerance="10"
     gridtolerance="10"
     guidetolerance="10"
     inkscape:pageopacity="0"
     inkscape:pageshadow="2"
     inkscape:window-width="1280"
     inkscape:window-height="750"
     id="namedview4536"
     showgrid="false"
     inkscape:showpageshadow="false"
     showborder="true"
     borderlayer="true"
     fit-margin-top="0"
     fit-margin-left="0"
     fit-margin-right="0"
     fit-margin-bottom="0"
     inkscape:zoom="2.7311832"
     inkscape:cx="263.62201"
     inkscape:cy="69.854504"
     inkscape:window-x="0"
     inkscape:window-y="18"
     inkscape:window-maximized="0"
     inkscape:current-layer="Ebene_1"
     viewbox-width="0.01" /><path
     d="M 524.774,218.331 445.477,0 h -82.055 l -13.796,39.765 c 14.956,19.059 23.877,43.084 23.877,69.201 0,52.822 -36.533,97.113 -85.72,109.002 l -0.12,0.363 h 83.109 c 0,0 35.145,-131.688 35.314,-132.204 0,-0.016 0,-0.021 0,-0.021 l 0.018,0.012 -0.018,0.009 c 0.565,2.027 35.578,132.204 35.578,132.204 z"
     id="path4529"
     inkscape:connector-curvature="0"
     style="fill:#000000;fill-opacity:1" /><path
     d="m 233.654,0.261 h -79.617 c 0,0 -35.071,130.266 -35.594,132.212 v 0.012 h -0.009 c 0,0 0,0 0.009,-0.012 C 118.318,132.161 83.111,0.261 83.111,0.261 H 0 l 75.776,218.333 h 82.062 l 14.874,-40.945 c -14.726,-18.979 -23.5,-42.809 -23.5,-68.684 0,-52.382 35.903,-96.373 84.442,-108.704 z"
     id="path4531"
     inkscape:connector-curvature="0"
     style="fill:#000000;fill-opacity:1" /><path
     d="m 261.357,57.312 c -28.497,0 -51.62,23.133 -51.62,51.653 0,28.504 23.123,51.609 51.62,51.609 28.521,0 51.653,-23.105 51.653,-51.609 0.001,-28.52 -23.132,-51.653 -51.653,-51.653 z"
     id="path4533"
     inkscape:connector-curvature="0"
     style="fill:#000000;fill-opacity:1" /></svg>